<?xml version="1.0" encoding="UTF-8"?>
<svg width="225px" height="225px" viewBox="0 0 225 225" version="1.1" xmlns="http://www.w3.org/2000/svg" xmlns:xlink="http://www.w3.org/1999/xlink">
    <!-- Generator: Sketch 56.3 (81716) - https://sketch.com -->
    <title>Group 3 Copy 2</title>
    <desc>Created with Sketch.</desc>
    <g id="Brand" stroke="none" stroke-width="1" fill="none" fill-rule="evenodd">
        <g id="feature-copy" transform="translate(-652.000000, -400.000000)">
            <g id="Group-3-Copy-2" transform="translate(652.000000, 400.000000)">
                <path d="M34.6124516,1.80000007 C23.9111632,1.80000007 19.3655001,2.67780811 14.6614615,5.19355546 C10.5751446,7.37894166 7.37894166,10.5751446 5.19355546,14.6614615 C2.67780811,19.3655001 1.80000007,23.9111632 1.80000007,34.6124516 L1.80000007,189.487557 C1.80000007,200.188846 2.67780811,204.734509 5.19355546,209.438547 C7.37894166,213.524864 10.5751446,216.721067 14.6614615,218.906453 C19.3655001,221.422201 23.9111632,222.300009 34.6124516,222.300009 L189.487557,222.300009 C200.188846,222.300009 204.734509,221.422201 209.438547,218.906453 C213.524864,216.721067 216.721067,213.524864 218.906453,209.438547 C221.422201,204.734509 222.300009,200.188846 222.300009,189.487557 L222.300009,34.6124516 C222.300009,23.9111632 221.422201,19.3655001 218.906453,14.6614615 C216.721067,10.5751446 213.524864,7.37894166 209.438547,5.19355546 C204.734509,2.67780811 200.188846,1.80000007 189.487557,1.80000007 L34.6124516,1.80000007 Z" id="Rectangle-2" stroke="#FFFFFF" stroke-width="3.60000014" fill="#129D42"></path>
                <path d="M34.6124516,4.15283808e-16 L189.487557,6.34593045e-15 C201.523061,-3.68716834e-15 205.887425,1.2531458 210.287425,3.60629164 C214.687426,5.95943749 218.140571,9.41258338 220.493717,13.8125836 C222.846863,18.2125837 224.100009,22.5769481 224.100009,34.6124516 L224.100009,110.700004 L0,110.700004 L-8.81411965e-16,34.6124516 C5.12125734e-16,22.5769481 1.2531458,18.2125837 3.60629164,13.8125836 C5.95943749,9.41258338 9.41258338,5.95943749 13.8125836,3.60629164 C18.2125837,1.2531458 22.5769481,-2.41291851e-16 34.6124516,4.15283808e-16 Z" id="Rectangle-2-Copy" fill="#FFFFFF"></path>
                <path d="M69.1632027,67.0692 L69.1632027,77.8584005 L85.8816034,77.8584005 C87.6312035,77.8584005 87.6312035,81.6492006 87.6312035,84.1764007 C87.6312035,86.8008008 87.6312035,90.300001 85.8816034,90.300001 L61.7760025,90.300001 C57.9852023,90.300001 54.4860022,90.105601 54.4860022,87.5784009 L54.4860022,34.7015988 C54.4860022,32.1743987 57.9852023,31.9799986 61.7760025,31.9799986 L85.8816034,31.9799986 C87.6312035,31.9799986 87.6312035,35.4791988 87.6312035,38.1035989 C87.6312035,40.630799 87.6312035,44.4215991 85.8816034,44.4215991 L69.1632027,44.4215991 L69.1632027,54.9191996 L80.3412032,54.9191996 C82.0908033,54.9191996 82.0908033,58.6127997 82.0908033,61.0427998 C82.0908033,63.6671999 82.0908033,67.0692 80.3412032,67.0692 L69.1632027,67.0692 Z M120.873605,65.4168 L116.499605,47.6291993 L115.527605,47.6291993 L111.639604,65.4168 L120.873605,65.4168 Z M116.110805,31.9799986 C120.290405,31.9799986 127.386005,32.2715987 127.969205,35.0903988 L139.536006,87.8700009 C139.536006,90.202801 136.425605,90.300001 132.829205,90.300001 C129.330005,90.300001 125.830805,90.202801 125.344805,87.8700009 L123.109205,77.5668005 L108.918004,77.5668005 L106.682404,87.8700009 C106.196404,90.202801 102.697204,90.300001 99.1980039,90.300001 C95.6016038,90.300001 92.4912037,90.202801 92.4912037,87.8700009 L104.058004,35.0903988 C104.641204,32.2715987 111.736804,31.9799986 116.110805,31.9799986 Z M140.410806,31.9799986 L175.694407,31.9799986 C177.444007,31.9799986 177.444007,35.4791988 177.444007,38.1035989 C177.444007,40.630799 177.444007,44.4215991 175.694407,44.4215991 L165.391207,44.4215991 L165.391207,87.6756009 C165.391207,90.105601 161.892006,90.300001 158.101206,90.300001 C154.213206,90.300001 150.714006,90.105601 150.714006,87.6756009 L150.714006,44.4215991 L140.410806,44.4215991 C138.661206,44.4215991 138.661206,40.630799 138.661206,38.1035989 C138.661206,35.4791988 138.661206,31.9799986 140.410806,31.9799986 Z" id="EAT" fill="#129D42" fill-rule="nonzero"></path>
                <path d="M32.9184013,189.650404 C32.1408013,189.261604 31.6548013,188.678404 31.6548013,187.803604 C31.6548013,186.248404 31.6548013,185.179204 31.8492013,184.110004 C32.1408013,181.971604 32.8212013,179.930404 34.0848014,179.930404 C37.0008015,180.902404 39.6252016,182.263204 44.1936018,182.263204 C51.580802,182.263204 55.2744022,181.388404 55.2744022,175.264804 C55.2744022,161.462403 29.6136012,174.681604 29.6136012,150.576003 C29.6136012,136.676402 37.1952015,132.594002 48.9564019,132.594002 C54.0108021,132.594002 57.7044023,132.691202 61.9812025,133.663202 C62.4672025,133.857602 62.6616025,134.538002 62.7588025,135.315602 C62.7588025,137.551202 62.4672025,140.758802 61.4952024,142.605603 C61.3008024,142.897203 61.0092024,142.897203 60.6204024,142.897203 C58.2876023,142.605603 55.1772022,142.119603 52.0668021,142.119603 C42.1524017,142.119603 41.1804016,145.910403 41.1804016,149.992803 C41.1804016,163.212003 66.8412027,149.701203 66.8412027,175.264804 C66.8412027,190.233604 54.4968022,191.788805 47.4984019,191.788805 C41.7636017,191.788805 38.0700015,191.400005 32.9184013,189.650404 Z M71.8956029,133.080002 L106.110004,133.080002 C107.568004,133.080002 107.762404,135.315602 107.762404,137.745602 C107.762404,140.175602 107.568004,142.411203 106.110004,142.411203 L94.9320038,142.411203 L94.9320038,189.261604 C94.9320038,191.205604 92.1132037,191.400005 89.0028035,191.400005 C85.8924034,191.400005 83.0736033,191.205604 83.0736033,189.261604 L83.0736033,142.411203 L71.8956029,142.411203 C70.4376028,142.411203 70.2432028,140.175602 70.2432028,137.745602 C70.2432028,135.315602 70.4376028,133.080002 71.8956029,133.080002 Z M147.225606,142.411203 L128.854805,142.411203 L128.854805,157.477203 L140.907606,157.477203 C142.365606,157.477203 142.560006,159.712803 142.560006,162.142803 C142.560006,164.572803 142.365606,166.808404 140.907606,166.808404 L128.854805,166.808404 L128.854805,182.068804 L147.225606,182.068804 C148.683606,182.068804 148.878006,184.304404 148.878006,186.734404 C148.878006,189.164404 148.683606,191.400005 147.225606,191.400005 L122.828405,191.400005 C119.815205,191.400005 116.996405,191.205604 116.996405,189.261604 L116.996405,135.218402 C116.996405,133.274402 119.815205,133.080002 122.828405,133.080002 L147.225606,133.080002 C148.683606,133.080002 148.878006,135.315602 148.878006,137.745602 C148.878006,140.175602 148.683606,142.411203 147.225606,142.411203 Z M185.133607,189.747604 L180.176407,177.111604 C179.107207,177.208804 177.940807,177.208804 176.677207,177.208804 L170.456407,177.208804 L170.456407,189.261604 C170.456407,191.205604 167.637607,191.400005 164.527207,191.400005 C161.416806,191.400005 158.598006,191.205604 158.598006,189.261604 L158.598006,135.218402 C158.598006,133.274402 161.416806,133.080002 164.527207,133.080002 L176.677207,133.080002 C193.395608,133.080002 197.866808,142.508403 197.866808,155.922003 C197.866808,164.475603 196.020008,170.793604 190.382408,174.195604 L190.382408,174.778804 L196.214408,189.747604 C196.214408,191.302805 193.978808,191.400005 191.160008,191.400005 C188.438407,191.400005 185.814007,191.108404 185.133607,189.747604 Z M175.316407,167.877604 C180.662407,167.877604 186.494407,167.488804 186.494407,155.922003 C186.494407,142.508403 180.662407,142.411203 175.316407,142.411203 L170.456407,142.411203 L170.456407,167.877604 L175.316407,167.877604 Z" id="STER" fill="#FFFFFF" fill-rule="nonzero"></path>
            </g>
        </g>
    </g>
</svg>