<?xml version="1.0" standalone="no"?>
<!DOCTYPE svg PUBLIC "-//W3C//DTD SVG 20010904//EN"
 "http://www.w3.org/TR/2001/REC-SVG-20010904/DTD/svg10.dtd">
<svg version="1.0" xmlns="http://www.w3.org/2000/svg"
 width="1930.000000pt" height="1930.000000pt" viewBox="0 0 1930.000000 1930.000000"
 preserveAspectRatio="xMidYMid meet">
<metadata>
Created by potrace 1.11, written by Peter Selinger 2001-2013
</metadata>
<g transform="translate(0.000000,1930.000000) scale(0.100000,-0.100000)"
fill="#000000" stroke="none">
<path d="M2682 19289 c-588 -29 -963 -115 -1331 -305 -454 -236 -799 -581
-1035 -1035 -194 -375 -275 -735 -306 -1354 -14 -277 -14 -13575 0 -13860 27
-554 96 -903 243 -1230 238 -530 623 -929 1142 -1185 353 -174 679 -248 1225
-280 130 -8 2260 -10 7140 -8 6500 3 6965 5 7110 21 458 51 714 119 1023 273
251 125 443 263 634 456 192 193 323 377 448 627 153 306 221 565 272 1021 16
145 18 610 21 7110 2 4880 0 7010 -8 7140 -32 546 -106 872 -280 1225 -256
519 -655 904 -1185 1142 -327 147 -676 216 -1230 243 -247 12 -13642 11
-13883 -1z m14115 -312 c228 -23 359 -44 498 -77 453 -108 873 -368 1154 -715
273 -336 428 -721 486 -1205 40 -338 40 -364 40 -3845 l0 -3360 -9337 -3
-9338 -2 0 3312 c0 2056 4 3387 10 3508 25 497 87 817 210 1093 224 501 596
873 1097 1097 268 119 599 185 1058 209 88 4 3265 7 7060 7 6395 -2 6912 -3
7062 -19z m-11932 -10837 c235 -14 566 -61 607 -86 6 -4 19 -25 29 -48 59
-131 -29 -690 -113 -711 -13 -3 -93 3 -178 14 -271 35 -390 43 -590 44 -389 0
-631 -68 -767 -215 -87 -95 -123 -215 -124 -408 0 -69 4 -147 11 -175 19 -85
68 -171 129 -228 120 -111 241 -154 671 -242 343 -70 472 -105 610 -164 174
-75 300 -165 410 -292 113 -132 188 -284 240 -484 69 -269 80 -675 25 -930
-83 -380 -290 -650 -620 -810 -264 -129 -493 -174 -916 -182 -396 -8 -676 18
-954 86 -195 48 -312 89 -350 122 -50 44 -59 87 -52 259 13 296 90 510 185
510 15 0 110 -29 212 -64 305 -105 489 -134 791 -122 362 14 530 58 643 172
92 92 129 205 130 394 0 198 -38 306 -148 416 -46 46 -85 73 -156 107 -123 60
-209 84 -562 157 -160 34 -343 77 -407 96 -134 41 -291 113 -390 179 -72 48
-190 162 -239 231 -139 193 -216 464 -229 799 -13 358 41 672 158 910 194 397
568 611 1159 664 137 12 586 12 785 1z m4324 -45 c67 -34 97 -184 88 -435 -6
-174 -22 -242 -67 -293 l-28 -32 -486 -3 -486 -3 -2 -1980 -3 -1981 -37 -33
c-71 -66 -230 -91 -522 -82 -249 7 -350 33 -400 101 l-21 27 -3 1974 -2 1974
-486 3 -486 3 -27 33 c-38 45 -50 88 -63 230 -12 141 0 336 27 414 9 26 30 59
47 73 l30 25 1449 0 c1251 0 1454 -2 1478 -15z m3439 -13 c50 -47 64 -112 69
-319 6 -196 -4 -289 -37 -358 -38 -80 18 -75 -854 -75 l-776 0 0 -625 0 -625
510 0 c553 0 548 1 584 -54 43 -66 64 -283 47 -471 -12 -132 -32 -196 -73
-230 l-30 -25 -519 0 -519 0 0 -635 0 -635 776 0 c872 0 816 5 854 -75 33 -69
43 -162 37 -358 -5 -207 -19 -272 -69 -319 l-31 -29 -1161 3 c-1073 3 -1165 5
-1220 21 -79 23 -129 53 -149 87 -16 26 -17 203 -17 2322 0 2144 1 2295 17
2318 9 14 24 31 33 37 28 23 121 53 188 62 37 5 572 9 1188 10 l1122 1 30 -28z
m2792 4 c579 -84 949 -325 1156 -751 133 -275 195 -573 210 -1015 18 -527 -68
-974 -244 -1261 -66 -108 -220 -271 -319 -338 -35 -23 -63 -49 -63 -57 0 -9
110 -299 245 -646 135 -346 245 -638 245 -649 0 -33 -52 -76 -116 -96 -49 -15
-96 -18 -284 -18 -141 0 -251 5 -295 13 -86 16 -188 64 -213 100 -10 15 -111
263 -223 551 l-204 523 -89 -6 c-49 -3 -232 -6 -408 -6 l-318 0 0 -521 c0
-593 5 -561 -85 -604 -88 -43 -143 -50 -405 -50 -262 0 -317 7 -405 50 -94 46
-85 -219 -85 2377 0 2144 1 2295 17 2318 9 14 24 31 33 37 29 24 123 54 194
62 39 5 402 8 806 7 625 -2 752 -5 850 -20z"/>
<path d="M5170 15920 c-163 -16 -276 -63 -312 -130 -18 -34 -18 -107 -16
-2300 l3 -2265 23 -32 c27 -39 103 -77 197 -99 63 -16 183 -18 1243 -21 l1173
-4 34 34 c42 42 63 110 75 248 26 289 -1 620 -58 707 -34 52 -27 52 -777 52
l-695 0 0 450 0 450 486 0 486 0 27 29 c42 45 61 126 72 309 11 193 -1 451
-26 540 -10 33 -30 75 -45 94 l-28 33 -486 3 -486 3 0 434 0 435 695 0 c750 0
743 0 777 52 57 87 84 418 58 707 -12 137 -33 206 -75 248 l-33 33 -1118 -1
c-616 -1 -1153 -5 -1194 -9z"/>
<path d="M9628 15919 c-347 -23 -574 -93 -639 -196 -12 -18 -197 -847 -505
-2251 l-486 -2222 23 -47 c48 -96 146 -123 464 -131 345 -7 527 18 623 88 23
16 48 43 56 58 8 16 52 198 96 403 45 206 88 404 96 442 l16 67 591 0 592 0
93 -433 c51 -237 102 -450 112 -472 54 -111 224 -155 600 -155 288 0 436 23
500 76 37 32 60 73 60 109 0 23 -932 4298 -961 4410 -30 114 -151 182 -404
225 -217 37 -623 50 -927 29z m554 -2019 c98 -399 178 -733 178 -742 0 -17
-25 -18 -381 -18 l-381 0 5 28 c3 15 76 347 161 739 86 392 156 715 156 718 0
3 19 5 42 3 l41 -3 179 -725z"/>
<path d="M11935 15897 c-20 -20 -39 -54 -49 -87 -27 -89 -39 -278 -32 -485 9
-275 36 -383 106 -417 32 -16 76 -18 467 -18 l433 0 2 -1832 3 -1833 23 -32
c29 -41 106 -78 207 -100 105 -23 607 -26 725 -4 144 26 222 71 249 144 8 20
11 588 11 1843 l0 1814 429 0 c283 0 439 4 459 11 18 6 41 26 53 45 44 72 51
124 56 420 6 360 -8 467 -72 531 l-33 33 -1502 0 -1502 0 -33 -33z"/>
<path d="M14500 6270 l0 -1062 343 5 c395 5 472 16 612 86 102 51 162 103 223
195 111 165 162 396 162 725 0 561 -131 897 -400 1029 -140 69 -177 74 -582
79 l-358 5 0 -1062z"/>
</g>
</svg>
